{
    "asset" : {
        "generator" : "Khronos glTF Blender I/O v1.6.16",
        "version" : "2.0"
    },
    "scene" : 0,
    "scenes" : [
        {
            "name" : "Scene",
            "nodes" : [
                0
            ]
        }
    ],
    "nodes" : [
        {
            "mesh" : 0,
            "name" : "Tube004",
            "scale" : [
                0.0022737400140613317,
                0.0022737400140613317,
                0.0022737400140613317
            ]
        }
    ],
    "materials" : [
        {
            "doubleSided" : true,
            "name" : "coil_02_side",
            "pbrMetallicRoughness" : {
                "baseColorFactor" : [
                    0.5,
                    0.5,
                    0.5,
                    1
                ],
                "metallicFactor" : 0,
                "metallicRoughnessTexture" : {
                    "index" : 0
                }
            }
        },
        {
            "doubleSided" : true,
            "name" : "coil_02_top",
            "pbrMetallicRoughness" : {
                "baseColorTexture" : {
                    "index" : 1
                },
                "metallicFactor" : 0,
                "metallicRoughnessTexture" : {
                    "index" : 2
                }
            }
        },
        {
            "doubleSided" : true,
            "name" : "coil_02_ribon",
            "pbrMetallicRoughness" : {
                "baseColorTexture" : {
                    "index" : 3
                },
                "metallicFactor" : 0,
                "metallicRoughnessTexture" : {
                    "index" : 4
                }
            }
        }
    ],
    "meshes" : [
        {
            "name" : "Mesh",
            "primitives" : [
                {
                    "attributes" : {
                        "POSITION" : 0,
                        "NORMAL" : 1,
                        "TEXCOORD_0" : 2
                    },
                    "indices" : 3,
                    "material" : 0
                },
                {
                    "attributes" : {
                        "POSITION" : 4,
                        "NORMAL" : 5,
                        "TEXCOORD_0" : 6
                    },
                    "indices" : 7,
                    "material" : 1
                },
                {
                    "attributes" : {
                        "POSITION" : 8,
                        "NORMAL" : 9,
                        "TEXCOORD_0" : 10
                    },
                    "indices" : 11,
                    "material" : 2
                }
            ]
        }
    ],
    "textures" : [
        {
            "sampler" : 0,
            "source" : 0
        },
        {
            "sampler" : 0,
            "source" : 1
        },
        {
            "sampler" : 0,
            "source" : 2
        },
        {
            "sampler" : 0,
            "source" : 3
        },
        {
            "sampler" : 0,
            "source" : 4
        }
    ],
    "images" : [
        {
            "bufferView" : 4,
            "mimeType" : "image/png",
            "name" : "coil_02_side_Roughness"
        },
        {
            "bufferView" : 9,
            "mimeType" : "image/jpeg",
            "name" : "coil_02_top_BaseColor"
        },
        {
            "bufferView" : 10,
            "mimeType" : "image/png",
            "name" : "coil_02_top_Roughness"
        },
        {
            "bufferView" : 15,
            "mimeType" : "image/jpeg",
            "name" : "coil_02_ribon_BaseColor"
        },
        {
            "bufferView" : 16,
            "mimeType" : "image/png",
            "name" : "coil_02_ribon_Roughness"
        }
    ],
    "accessors" : [
        {
            "bufferView" : 0,
            "componentType" : 5126,
            "count" : 148,
            "max" : [
                100,
                114.64362335205078,
                100
            ],
            "min" : [
                -100,
                0,
                -100
            ],
            "type" : "VEC3"
        },
        {
            "bufferView" : 1,
            "componentType" : 5126,
            "count" : 148,
            "type" : "VEC3"
        },
        {
            "bufferView" : 2,
            "componentType" : 5126,
            "count" : 148,
            "type" : "VEC2"
        },
        {
            "bufferView" : 3,
            "componentType" : 5123,
            "count" : 432,
            "type" : "SCALAR"
        },
        {
            "bufferView" : 5,
            "componentType" : 5126,
            "count" : 144,
            "max" : [
                100,
                114.64362335205078,
                100
            ],
            "min" : [
                -100,
                0,
                -100
            ],
            "type" : "VEC3"
        },
        {
            "bufferView" : 6,
            "componentType" : 5126,
            "count" : 144,
            "type" : "VEC3"
        },
        {
            "bufferView" : 7,
            "componentType" : 5126,
            "count" : 144,
            "type" : "VEC2"
        },
        {
            "bufferView" : 8,
            "componentType" : 5123,
            "count" : 432,
            "type" : "SCALAR"
        },
        {
            "bufferView" : 11,
            "componentType" : 5126,
            "count" : 1088,
            "max" : [
                100.15071105957031,
                114.89988708496094,
                100.15071105957031
            ],
            "min" : [
                -100.15071105957031,
                -0.2684745788574219,
                -100.15071105957031
            ],
            "type" : "VEC3"
        },
        {
            "bufferView" : 12,
            "componentType" : 5126,
            "count" : 1088,
            "type" : "VEC3"
        },
        {
            "bufferView" : 13,
            "componentType" : 5126,
            "count" : 1088,
            "type" : "VEC2"
        },
        {
            "bufferView" : 14,
            "componentType" : 5123,
            "count" : 3072,
            "type" : "SCALAR"
        }
    ],
    "bufferViews" : [
        {
            "buffer" : 0,
            "byteLength" : 1776,
            "byteOffset" : 0
        },
        {
            "buffer" : 0,
            "byteLength" : 1776,
            "byteOffset" : 1776
        },
        {
            "buffer" : 0,
            "byteLength" : 1184,
            "byteOffset" : 3552
        },
        {
            "buffer" : 0,
            "byteLength" : 864,
            "byteOffset" : 4736
        },
        {
            "buffer" : 0,
            "byteLength" : 71297,
            "byteOffset" : 5600
        },
        {
            "buffer" : 0,
            "byteLength" : 1728,
            "byteOffset" : 76900
        },
        {
            "buffer" : 0,
            "byteLength" : 1728,
            "byteOffset" : 78628
        },
        {
            "buffer" : 0,
            "byteLength" : 1152,
            "byteOffset" : 80356
        },
        {
            "buffer" : 0,
            "byteLength" : 864,
            "byteOffset" : 81508
        },
        {
            "buffer" : 0,
            "byteLength" : 42574,
            "byteOffset" : 82372
        },
        {
            "buffer" : 0,
            "byteLength" : 4429,
            "byteOffset" : 124948
        },
        {
            "buffer" : 0,
            "byteLength" : 13056,
            "byteOffset" : 129380
        },
        {
            "buffer" : 0,
            "byteLength" : 13056,
            "byteOffset" : 142436
        },
        {
            "buffer" : 0,
            "byteLength" : 8704,
            "byteOffset" : 155492
        },
        {
            "buffer" : 0,
            "byteLength" : 6144,
            "byteOffset" : 164196
        },
        {
            "buffer" : 0,
            "byteLength" : 16536,
            "byteOffset" : 170340
        },
        {
            "buffer" : 0,
            "byteLength" : 39315,
            "byteOffset" : 186876
        }
    ],
    "samplers" : [
        {
            "magFilter" : 9729,
            "minFilter" : 9987
        }
    ],
    "buffers" : [
        {
            "byteLength" : 226192,
            "uri" : "data:application/octet-stream;base64,"
        }
    ]
}
