{
    "asset" : {
        "generator" : "Khronos glTF Blender I/O v1.6.16",
        "version" : "2.0"
    },
    "scene" : 0,
    "scenes" : [
        {
            "name" : "Scene",
            "nodes" : [
                0
            ]
        }
    ],
    "nodes" : [
        {
            "mesh" : 0,
            "name" : "Tube004",
            "scale" : [
                0.0022737400140613317,
                0.0022737400140613317,
                0.0022737400140613317
            ]
        }
    ],
    "animations" : [
        {
            "channels" : [
                {
                    "sampler" : 0,
                    "target" : {
                        "node" : 0,
                        "path" : "translation"
                    }
                },
                {
                    "sampler" : 1,
                    "target" : {
                        "node" : 0,
                        "path" : "rotation"
                    }
                },
                {
                    "sampler" : 2,
                    "target" : {
                        "node" : 0,
                        "path" : "scale"
                    }
                }
            ],
            "name" : "Tube004|Take 001|BaseLayer",
            "samplers" : [
                {
                    "input" : 12,
                    "interpolation" : "STEP",
                    "output" : 13
                },
                {
                    "input" : 12,
                    "interpolation" : "STEP",
                    "output" : 14
                },
                {
                    "input" : 12,
                    "interpolation" : "STEP",
                    "output" : 15
                }
            ]
        }
    ],
    "materials" : [
        {
            "doubleSided" : true,
            "name" : "coil_02_side",
            "pbrMetallicRoughness" : {
                "baseColorTexture" : {
                    "index" : 0
                },
                "metallicFactor" : 0,
                "roughnessFactor" : 0.5527864098548889
            }
        },
        {
            "doubleSided" : true,
            "name" : "coil_02_top",
            "pbrMetallicRoughness" : {
                "baseColorTexture" : {
                    "index" : 1
                },
                "metallicFactor" : 0,
                "metallicRoughnessTexture" : {
                    "index" : 2
                }
            }
        },
        {
            "doubleSided" : true,
            "name" : "coil_02_ribon",
            "pbrMetallicRoughness" : {
                "baseColorTexture" : {
                    "index" : 3
                },
                "metallicFactor" : 0,
                "metallicRoughnessTexture" : {
                    "index" : 4
                }
            }
        }
    ],
    "meshes" : [
        {
            "name" : "Mesh",
            "primitives" : [
                {
                    "attributes" : {
                        "POSITION" : 0,
                        "NORMAL" : 1,
                        "TEXCOORD_0" : 2
                    },
                    "indices" : 3,
                    "material" : 0
                },
                {
                    "attributes" : {
                        "POSITION" : 4,
                        "NORMAL" : 5,
                        "TEXCOORD_0" : 6
                    },
                    "indices" : 7,
                    "material" : 1
                },
                {
                    "attributes" : {
                        "POSITION" : 8,
                        "NORMAL" : 9,
                        "TEXCOORD_0" : 10
                    },
                    "indices" : 11,
                    "material" : 2
                }
            ]
        }
    ],
    "textures" : [
        {
            "sampler" : 0,
            "source" : 0
        },
        {
            "sampler" : 0,
            "source" : 1
        },
        {
            "sampler" : 0,
            "source" : 2
        },
        {
            "sampler" : 0,
            "source" : 3
        },
        {
            "sampler" : 0,
            "source" : 4
        }
    ],
    "images" : [
        {
            "bufferView" : 4,
            "mimeType" : "image/jpeg",
            "name" : "galvanized-metal"
        },
        {
            "bufferView" : 9,
            "mimeType" : "image/jpeg",
            "name" : "coil_02_top_BaseColor"
        },
        {
            "bufferView" : 10,
            "mimeType" : "image/png",
            "name" : "coil_02_top_Roughness"
        },
        {
            "bufferView" : 15,
            "mimeType" : "image/jpeg",
            "name" : "coil_02_ribon_BaseColor"
        },
        {
            "bufferView" : 16,
            "mimeType" : "image/png",
            "name" : "coil_02_ribon_Roughness"
        }
    ],
    "accessors" : [
        {
            "bufferView" : 0,
            "componentType" : 5126,
            "count" : 432,
            "max" : [
                100,
                114.64362335205078,
                100
            ],
            "min" : [
                -100,
                0,
                -100
            ],
            "type" : "VEC3"
        },
        {
            "bufferView" : 1,
            "componentType" : 5126,
            "count" : 432,
            "type" : "VEC3"
        },
        {
            "bufferView" : 2,
            "componentType" : 5126,
            "count" : 432,
            "type" : "VEC2"
        },
        {
            "bufferView" : 3,
            "componentType" : 5123,
            "count" : 432,
            "type" : "SCALAR"
        },
        {
            "bufferView" : 5,
            "componentType" : 5126,
            "count" : 281,
            "max" : [
                100,
                114.64362335205078,
                100
            ],
            "min" : [
                -100,
                0,
                -100
            ],
            "type" : "VEC3"
        },
        {
            "bufferView" : 6,
            "componentType" : 5126,
            "count" : 281,
            "type" : "VEC3"
        },
        {
            "bufferView" : 7,
            "componentType" : 5126,
            "count" : 281,
            "type" : "VEC2"
        },
        {
            "bufferView" : 8,
            "componentType" : 5123,
            "count" : 432,
            "type" : "SCALAR"
        },
        {
            "bufferView" : 11,
            "componentType" : 5126,
            "count" : 3038,
            "max" : [
                100.15071105957031,
                114.89988708496094,
                100.15071105957031
            ],
            "min" : [
                -100.15071105957031,
                -0.2684745788574219,
                -100.15071105957031
            ],
            "type" : "VEC3"
        },
        {
            "bufferView" : 12,
            "componentType" : 5126,
            "count" : 3038,
            "type" : "VEC3"
        },
        {
            "bufferView" : 13,
            "componentType" : 5126,
            "count" : 3038,
            "type" : "VEC2"
        },
        {
            "bufferView" : 14,
            "componentType" : 5123,
            "count" : 3072,
            "type" : "SCALAR"
        },
        {
            "bufferView" : 17,
            "componentType" : 5126,
            "count" : 1,
            "max" : [
                0.03333333333333333
            ],
            "min" : [
                0.03333333333333333
            ],
            "type" : "SCALAR"
        },
        {
            "bufferView" : 18,
            "componentType" : 5126,
            "count" : 1,
            "type" : "VEC3"
        },
        {
            "bufferView" : 19,
            "componentType" : 5126,
            "count" : 1,
            "type" : "VEC4"
        },
        {
            "bufferView" : 20,
            "componentType" : 5126,
            "count" : 1,
            "type" : "VEC3"
        }
    ],
    "bufferViews" : [
        {
            "buffer" : 0,
            "byteLength" : 5184,
            "byteOffset" : 0
        },
        {
            "buffer" : 0,
            "byteLength" : 5184,
            "byteOffset" : 5184
        },
        {
            "buffer" : 0,
            "byteLength" : 3456,
            "byteOffset" : 10368
        },
        {
            "buffer" : 0,
            "byteLength" : 864,
            "byteOffset" : 13824
        },
        {
            "buffer" : 0,
            "byteLength" : 39394,
            "byteOffset" : 14688
        },
        {
            "buffer" : 0,
            "byteLength" : 3372,
            "byteOffset" : 54084
        },
        {
            "buffer" : 0,
            "byteLength" : 3372,
            "byteOffset" : 57456
        },
        {
            "buffer" : 0,
            "byteLength" : 2248,
            "byteOffset" : 60828
        },
        {
            "buffer" : 0,
            "byteLength" : 864,
            "byteOffset" : 63076
        },
        {
            "buffer" : 0,
            "byteLength" : 42574,
            "byteOffset" : 63940
        },
        {
            "buffer" : 0,
            "byteLength" : 4429,
            "byteOffset" : 106516
        },
        {
            "buffer" : 0,
            "byteLength" : 36456,
            "byteOffset" : 110948
        },
        {
            "buffer" : 0,
            "byteLength" : 36456,
            "byteOffset" : 147404
        },
        {
            "buffer" : 0,
            "byteLength" : 24304,
            "byteOffset" : 183860
        },
        {
            "buffer" : 0,
            "byteLength" : 6144,
            "byteOffset" : 208164
        },
        {
            "buffer" : 0,
            "byteLength" : 16536,
            "byteOffset" : 214308
        },
        {
            "buffer" : 0,
            "byteLength" : 39315,
            "byteOffset" : 230844
        },
        {
            "buffer" : 0,
            "byteLength" : 4,
            "byteOffset" : 270160
        },
        {
            "buffer" : 0,
            "byteLength" : 12,
            "byteOffset" : 270164
        },
        {
            "buffer" : 0,
            "byteLength" : 16,
            "byteOffset" : 270176
        },
        {
            "buffer" : 0,
            "byteLength" : 12,
            "byteOffset" : 270192
        }
    ],
    "samplers" : [
        {
            "magFilter" : 9729,
            "minFilter" : 9987
        }
    ],
    "buffers" : [
        {
            "byteLength" : 270204,
            "uri" : "data:application/octet-stream;base64,"
        }
    ]
}
